# xmcd
#
# Track frame offsets:
#	187
#	19972
#	44065
#	62062
#	84937
#	108205
#	130260
#	153175
#	176962
#	202530
#
# Disc length: 2971 seconds
#
# Revision: 1
# Processed by: cddbd v1.5.1PL0 Copyright (c) Steve Scherf et al.
# Submitted via: CDex 1.50Beta5
#
DISCID=7c0b990a
DTITLE=須藤薫 - Winter Moon
DYEAR=1991
DGENRE=Pop
TTITLE0=LOVERS IN SNOW
TTITLE1=WINTER MOON
TTITLE2=特別な一日
TTITLE3=WEDDING MONTH
TTITLE4=12月16日
TTITLE5=夜のオアシス
TTITLE6=ANGEL AT MY ROOM
TTITLE7=南の島からメリークリスマス
TTITLE8=BLUE SNOW MIDNIGHT
TTITLE9=BIRDS
EXTD=
EXTT0=
EXTT1=
EXTT2=
EXTT3=
EXTT4=
EXTT5=
EXTT6=
EXTT7=
EXTT8=
EXTT9=
PLAYORDER=
